HIERARCHY
ROOT Hips
{
  OFFSET 3.13124 94.3669 -3.18751
  CHANNELS  6 Xposition Yposition Zposition Zrotation Xrotation Yrotation
  JOINT LeftUpLeg
  {
    OFFSET 8.64259 1.95398 -2.38835
    CHANNELS 3 Zrotation Xrotation Yrotation
    JOINT LeftLeg
    {
      OFFSET 43.7702 0 0
      CHANNELS 3 Zrotation Xrotation Yrotation
      JOINT LeftFoot
      {
        OFFSET 40.6238 0 0
        CHANNELS 3 Zrotation Xrotation Yrotation
        JOINT LeftToeBase
        {
          OFFSET 12.7242 0 0
          CHANNELS 3 Zrotation Xrotation Yrotation
          End Site
          {
            OFFSET 0 0 0
          }
        }
      }
    }
  }
  JOINT RightUpLeg
  {
    OFFSET -8.2249 1.95398 -2.59336
    CHANNELS 3 Zrotation Xrotation Yrotation
    JOINT RightLeg
    {
      OFFSET 43.5653 0 0
      CHANNELS 3 Zrotation Xrotation Yrotation
      JOINT RightFoot
      {
        OFFSET 40.6238 0 0
        CHANNELS 3 Zrotation Xrotation Yrotation
        JOINT RightToeBase
        {
          OFFSET 12.7242 0 0
          CHANNELS 3 Zrotation Xrotation Yrotation
          End Site
          {
            OFFSET 0 0 0
          }
        }
      }
    }
  }
  JOINT Spine
  {
    OFFSET 0.165834 0.87714 6.61349
    CHANNELS 3 Zrotation Xrotation Yrotation
    JOINT Spine1
    {
      OFFSET 7.38962 1.71661e-005 0
      CHANNELS 3 Zrotation Xrotation Yrotation
      JOINT Spine2
      {
        OFFSET 11.9445 1.14441e-005 0
        CHANNELS 3 Zrotation Xrotation Yrotation
        JOINT Spine3
        {
          OFFSET 14.7254 4.19617e-005 0
          CHANNELS 3 Zrotation Xrotation Yrotation
          JOINT Spine4
          {
            OFFSET 10.9679 0 0
            CHANNELS 3 Zrotation Xrotation Yrotation
            JOINT RightShoulder
            {
              OFFSET 2.46616 -1.6653 3.69651
              CHANNELS 3 Zrotation Xrotation Yrotation
              JOINT RightArm
              {
                OFFSET 13.0012 0 0
                CHANNELS 3 Zrotation Xrotation Yrotation
                JOINT RightForeArm
                {
                  OFFSET 28.7848 1.52588e-005 0
                  CHANNELS 3 Zrotation Xrotation Yrotation
                  JOINT RightHand
                  {
                    OFFSET 26.5688 1.52588e-005 0
                    CHANNELS 3 Zrotation Xrotation Yrotation
                    End Site
                    {
                      OFFSET 0 0 0
                    }
                  }
                }
              }
            }
            JOINT LeftShoulder
            {
              OFFSET 2.38034 -1.29275 -3.75231
              CHANNELS 3 Zrotation Xrotation Yrotation
              JOINT LeftArm
              {
                OFFSET 16.3182 6.10352e-005 0
                CHANNELS 3 Zrotation Xrotation Yrotation
                JOINT LeftForeArm
                {
                  OFFSET 27.0901 0 0
                  CHANNELS 3 Zrotation Xrotation Yrotation
                  JOINT LeftHand
                  {
                    OFFSET 24.5451 1.52588e-005 0
                    CHANNELS 3 Zrotation Xrotation Yrotation
                    End Site
                    {
                      OFFSET 0 0 0
                    }
                  }
                }
              }
            }
            JOINT Neck
            {
              OFFSET 5.0226 -0.0266342 0
              CHANNELS 3 Zrotation Xrotation Yrotation
              JOINT Head
              {
                OFFSET 6.69363 2.86102e-005 0
                CHANNELS 3 Zrotation Xrotation Yrotation
                End Site
                {
                  OFFSET 0 0 0
                }
              }
            }
          }
        }
      }
    }
  }
}
MOTION
Frames:	9
Frame Time:	0.0333333
-22.2658 90.5557 51.1227 85.2453 -55.3724 83.1912 -172.495 12.1208 87.6406 -4.54741 -16.7918 -2.20501 51.8131 7.73412 5.12684 28.7808 7.32959e-006 -8.17764e-006 177.713 -0.705499 85.5897 -11.6377 -0.318431 -0.0222087 75.1968 -4.95809 -2.4319 28.7808 1.19257e-005 2.76788e-005 0.8964 7.01225 -89.5393 12.8469 1.98623 0.701518 1.17724 2.01592 0.614348 -21.3662 1.67844 1.27959 -1.35355 1.67845 1.27959 88.2712 -68.9678 -99.2603 8.94189 28.5246 15.8903 49.5142 25.5005 -74.4363 -6.22539 -2.63658 44.7805 -111.046 -66.0015 55.5733 -19.5595 -16.1819 30.2351 -33.551 -23.648 -63.3979 -7.91884 0.019382 -6.71722 16.5333 -3.79717 12.192 8.39465 -7.97447 -9.93952 
-23.3772 90.1639 50.125 88.6585 -54.9507 85.5097 -172.106 11.5226 87.6892 -6.04899 -17.6476 -3.16475 53.7401 4.75655 2.90965 28.7808 7.32959e-006 -8.17764e-006 177.906 -0.895475 85.5225 -13.6355 2.89487 0.152559 77.9325 -7.45064 -3.43842 28.7808 1.19257e-005 2.76788e-005 1.06941 7.25341 -89.3072 12.3696 2.41196 0.680294 0.700875 2.43868 0.571494 -21.8477 2.10209 1.36842 -1.83503 2.10209 1.36842 88.0065 -67.7593 -99.8225 14.225 26.2408 14.1677 45.0695 17.5042 -77.4559 -3.18424 -1.15634 42.6351 -109.116 -64.9751 57.5446 -19.9254 -15.9082 18.4874 -14.7151 -19.4377 -45.123 7.41999 -0.501865 -8.9653 15.1914 -4.4243 14.9617 10.1854 -9.48905 -11.3486 
-24.2916 90.5187 48.6991 87.8514 -55.4032 87.2238 -171.832 13.4781 89.8542 -6.48103 -19.3043 -3.21272 54.6187 2.71821 1.50741 28.7808 7.32959e-006 -8.17764e-006 178.909 -1.07459 88.0655 -9.98044 3.95256 0.225155 73.8856 -7.59329 -3.68333 28.7808 1.19257e-005 2.76788e-005 1.42987 7.21586 -89.8349 12.4472 2.89436 -0.147675 0.779313 2.88504 -0.275016 -21.7791 2.80483 0.729751 -1.76646 2.8048 0.729733 88.2693 -65.5766 -99.9184 19.0742 22.7387 8.5164 33.1505 11.8771 -76.7359 -0.160681 0.188786 46.449 -110.419 -66.4496 56.5291 -17.265 -16.6497 5.58657 1.05187 -4.18316 -18.9172 13.6007 -2.29137 -20.0527 14.2963 -4.90078 18.1757 12.4139 -10.9863 -12.0612 
-25.0298 90.6593 47.2151 84.3641 -53.7435 85.1378 -172.883 16.8922 89.8877 -6.4679 -20.2407 -2.71228 55.2343 2.93492 1.66815 28.7808 7.32959e-006 -8.17764e-006 179.117 0.577393 88.7491 -7.61838 5.37137 0.304021 71.1691 -7.13378 -3.59827 28.7808 1.19257e-005 2.76788e-005 1.62859 7.02888 -90.3052 12.8073 3.05469 -0.378656 1.13982 3.03508 -0.512735 -21.4236 3.02696 0.557561 -1.41094 3.02695 0.55755 88.6549 -63.7207 -99.788 22.3844 19.7003 7.37991 8.46622 2.75486 -78.468 16.7739 8.78987 49.4697 -112.123 -66.8316 54.632 -14.3434 -17.3501 -4.43971 2.28863 1.06378 -3.4738 14.3997 -3.76005 -28.876 14.8319 -5.53858 19.0471 12.6078 -11.915 -12.0965 
-25.8769 90.4972 45.5553 81.2956 -50.2917 82.1099 -174.617 21.3422 88.3232 -9.01073 -22.9903 -2.40019 55.8242 3.85917 2.28801 28.7808 7.32959e-006 -8.17764e-006 178.742 5.3235 88.0248 -10.7201 8.3604 0.471963 71.8607 -6.98128 -3.47209 28.7808 1.19257e-005 2.76788e-005 1.65472 6.82437 -90.3772 13.1988 3.01175 -0.0628158 1.53145 3.0057 -0.197254 -21.0304 2.89353 0.849676 -1.01781 2.89354 0.849672 88.5151 -63.4021 -100.033 23.3352 18.7665 6.02787 -7.4696 -1.14542 -80.4897 29.0093 12.0199 38.3552 -108.865 -64.6085 57.7189 -14.8364 -18.0358 0.763532 2.73588 1.03311 -22.7415 10.0182 -1.82108 -20.2367 16.2738 -6.51054 16.9599 11.3823 -12.2604 -11.2657 
-26.8227 90.4793 44.119 81.8094 -48.494 82.3254 -174.967 23.9711 87.9161 -14.3067 -25.0785 -2.42378 57.4248 4.34088 2.57585 28.7808 7.32959e-006 -8.17764e-006 178.836 8.31151 87.6924 -15.2041 10.6926 0.611045 73.1265 -6.86207 -3.37359 28.7808 1.19257e-005 2.76788e-005 1.74661 6.95983 -90.1921 12.9357 3.27765 -0.0255584 1.26878 3.27303 -0.169146 -21.2972 3.13568 0.956338 -1.28452 3.13568 0.956317 88.8042 -63.0896 -99.7122 23.0194 19.3115 2.4639 -19.3148 -3.26679 -82.186 39.4187 13.4944 31.1659 -105.664 -62.3233 60.8561 -16.8442 -17.4975 0.211529 0.589698 -3.1316 -32.9966 5.04903 -0.71762 -14.0919 19.2694 -7.34242 15.2023 9.95397 -12.6881 -10.4823 
-27.5543 90.8408 43.0357 83.9125 -48.7206 84.3351 -174.066 24.0841 88.9828 -18.9111 -26.4228 -3.16059 58.7867 3.78991 2.1979 28.7808 7.32959e-006 -8.17764e-006 179.073 6.71374 88.0861 -12.9894 11.0706 0.640485 70.9257 -7.33351 -3.72575 28.7808 1.19257e-005 2.76788e-005 1.9293 7.18841 -90.1702 12.4938 3.71652 -0.337727 0.828012 3.69774 -0.500488 -21.7483 3.64798 0.791513 -1.73567 3.64796 0.791496 88.7451 -62.1103 -99.992 22.7661 19.8535 -2.71396 -22.7095 -3.8294 -82.5196 44.0771 15.6184 31.6579 -105.682 -61.5346 60.5477 -17.7152 -17.1902 -1.80675 -3.56517 -8.25156 -38.8268 1.48502 -0.285344 -10.2231 19.9621 -7.74218 15.8377 10.1416 -13.5082 -11.874 
-27.7589 91.2292 41.9705 85.3475 -48.4568 84.8665 -173.686 23.1215 89.1321 -21.6928 -25.9053 -3.32702 59.4223 3.68844 2.12478 28.7808 7.32959e-006 -8.17764e-006 178.607 5.18252 87.1875 -10.4306 11.1924 0.653697 68.7617 -7.51889 -3.94688 28.7808 1.19257e-005 2.76788e-005 1.95934 7.34757 -90.0733 12.1789 3.84135 -0.272809 0.513579 3.82539 -0.441929 -22.0657 3.74694 0.896472 -2.05302 3.74691 0.896458 87.9894 -61.6389 -101.1 22.2123 20.8219 -9.28541 -19.6415 -3.78488 -80.6658 47.5075 19.9207 38.1017 -105.269 -60.9844 60.8728 -18.1494 -16.9969 -3.9467 -6.1626 -10.6971 -41.7612 -1.02659 -0.135936 -8.29865 20.5316 -7.78264 15.4472 10.0799 -13.5389 -12.2942 
-27.6687 91.4431 40.9119 85.2167 -47.4062 84.3663 -173.563 22.7709 89.3318 -23.6938 -25.1267 -3.12417 60.4931 3.45407 1.9658 28.7808 7.32959e-006 -8.17764e-006 177.983 4.05045 86.3283 -6.88339 11.7877 0.694005 66.4603 -7.42539 -4.02954 28.7808 1.19257e-005 2.76788e-005 1.9039 7.30507 -90.0391 12.2607 3.75116 -0.154926 0.595142 3.7407 -0.320124 -21.9815 3.62409 0.981175 -1.96888 3.6241 0.981152 87.2874 -61.0987 -102.164 22.307 20.267 -13.5733 -21.4038 -5.7198 -76.2293 45.1595 19.5579 39.5228 -105.034 -60.5752 61.0255 -18.5737 -16.6955 -5.7551 -5.31264 -9.62271 -41.8319 -2.52477 -0.0870875 -6.81657 19.9313 -7.7395 15.7192 9.45213 -13.5644 -13.3467 
